# xmcd
#
# Track frame offsets:
#	150
#	16975
#	37402
#	53325
#	76790
#	96302
#	110012
#	126902
#	144567
#	164277
#	182815
#	210640
#	234917
#	258115
#	273745
#	298635
#
# Disc length: 4282 seconds
#
# Revision: 0
# Processed by: cddbd v1.5.2PL0 Copyright (c) Steve Scherf et al.
# Submitted via: EasyCDDAExtractor 10.0.2.1
#
DISCID=e310b810
DTITLE=Subres
DYEAR=1900
DGENRE=
TTITLE0=Never follow the sun
TTITLE1=We loved
TTITLE2=Macarena
TTITLE3=Apples and Dates
TTITLE4=Electricity in your palms
TTITLE5=You can't
TTITLE6=16 for the boy
TTITLE7=Bimbo song
TTITLE8=Deep blue evening
TTITLE9=Meabtezet song
TTITLE10=Put me under your wing
TTITLE11=Touched the sky
TTITLE12=1000 firemen
TTITLE13=Hava Nagila
TTITLE14=All the world all
TTITLE15=We brought peace upon you
EXTD=
EXTT0=
EXTT1=
EXTT2=
EXTT3=
EXTT4=
EXTT5=
EXTT6=
EXTT7=
EXTT8=
EXTT9=
EXTT10=
EXTT11=
EXTT12=
EXTT13=
EXTT14=
EXTT15=
PLAYORDER=
